<mxfile host="app.diagrams.net" modified="2021-10-30T09:21:58.151Z" agent="5.0 (Windows NT 10.0; Win64; x64) AppleWebKit/537.36 (KHTML, like Gecko) Chrome/95.0.4638.54 Safari/537.36" etag="-YNXY7n0MzldYoO6AEmc" version="14.6.11" type="github">
  <diagram id="C5RBs43oDa-KdzZeNtuy" name="Page-1">
    <mxGraphModel dx="2062" dy="1114" grid="0" gridSize="10" guides="1" tooltips="1" connect="1" arrows="1" fold="1" page="0" pageScale="1" pageWidth="827" pageHeight="1169" background="#182E3E" math="0" shadow="0">
      <root>
        <mxCell id="WIyWlLk6GJQsqaUBKTNV-0" />
        <mxCell id="WIyWlLk6GJQsqaUBKTNV-1" parent="WIyWlLk6GJQsqaUBKTNV-0" />
        <mxCell id="FY5nKimyKRe9Z_fMQVkA-3" value="" style="edgeStyle=orthogonalEdgeStyle;rounded=0;orthogonalLoop=1;jettySize=auto;html=1;strokeColor=#FFFFFF;fontColor=#FFFFFF;labelBackgroundColor=#182E3E;" edge="1" parent="WIyWlLk6GJQsqaUBKTNV-1" source="WIyWlLk6GJQsqaUBKTNV-3" target="FY5nKimyKRe9Z_fMQVkA-0">
          <mxGeometry relative="1" as="geometry" />
        </mxCell>
        <mxCell id="FY5nKimyKRe9Z_fMQVkA-5" style="edgeStyle=orthogonalEdgeStyle;rounded=0;orthogonalLoop=1;jettySize=auto;html=1;entryX=0.5;entryY=0;entryDx=0;entryDy=0;startArrow=none;exitX=0.5;exitY=1;exitDx=0;exitDy=0;strokeColor=#FFFFFF;fontColor=#FFFFFF;labelBackgroundColor=#182E3E;" edge="1" parent="WIyWlLk6GJQsqaUBKTNV-1" source="WIyWlLk6GJQsqaUBKTNV-3" target="FY5nKimyKRe9Z_fMQVkA-2">
          <mxGeometry relative="1" as="geometry" />
        </mxCell>
        <mxCell id="FY5nKimyKRe9Z_fMQVkA-19" style="edgeStyle=orthogonalEdgeStyle;rounded=0;orthogonalLoop=1;jettySize=auto;html=1;exitX=1;exitY=0.5;exitDx=0;exitDy=0;strokeColor=#FFFFFF;fontColor=#FFFFFF;labelBackgroundColor=#182E3E;" edge="1" parent="WIyWlLk6GJQsqaUBKTNV-1" source="WIyWlLk6GJQsqaUBKTNV-3" target="FY5nKimyKRe9Z_fMQVkA-1">
          <mxGeometry relative="1" as="geometry" />
        </mxCell>
        <mxCell id="WIyWlLk6GJQsqaUBKTNV-3" value="System Tasker" style="rounded=1;whiteSpace=wrap;html=1;fontSize=12;glass=0;strokeWidth=1;shadow=0;fillColor=#EEEEEE;strokeColor=#FFFFFF;fontColor=#1A1A1A;" parent="WIyWlLk6GJQsqaUBKTNV-1" vertex="1">
          <mxGeometry x="880" y="20" width="120" height="40" as="geometry" />
        </mxCell>
        <mxCell id="FY5nKimyKRe9Z_fMQVkA-7" style="edgeStyle=orthogonalEdgeStyle;rounded=0;orthogonalLoop=1;jettySize=auto;html=1;strokeColor=#FFFFFF;fontColor=#FFFFFF;labelBackgroundColor=#182E3E;" edge="1" parent="WIyWlLk6GJQsqaUBKTNV-1" source="FY5nKimyKRe9Z_fMQVkA-0" target="FY5nKimyKRe9Z_fMQVkA-6">
          <mxGeometry relative="1" as="geometry" />
        </mxCell>
        <mxCell id="FY5nKimyKRe9Z_fMQVkA-0" value="Main" style="rounded=1;whiteSpace=wrap;html=1;fontSize=12;glass=0;strokeWidth=1;shadow=0;fillColor=#EEEEEE;strokeColor=#FFFFFF;fontColor=#1A1A1A;" vertex="1" parent="WIyWlLk6GJQsqaUBKTNV-1">
          <mxGeometry x="412" y="20" width="120" height="40" as="geometry" />
        </mxCell>
        <mxCell id="FY5nKimyKRe9Z_fMQVkA-22" style="edgeStyle=orthogonalEdgeStyle;rounded=0;orthogonalLoop=1;jettySize=auto;html=1;strokeColor=#FFFFFF;fontColor=#FFFFFF;labelBackgroundColor=#182E3E;" edge="1" parent="WIyWlLk6GJQsqaUBKTNV-1" source="FY5nKimyKRe9Z_fMQVkA-2" target="FY5nKimyKRe9Z_fMQVkA-20">
          <mxGeometry relative="1" as="geometry" />
        </mxCell>
        <mxCell id="FY5nKimyKRe9Z_fMQVkA-23" style="edgeStyle=orthogonalEdgeStyle;rounded=0;orthogonalLoop=1;jettySize=auto;html=1;exitX=0;exitY=0.5;exitDx=0;exitDy=0;strokeColor=#FFFFFF;fontColor=#FFFFFF;labelBackgroundColor=#182E3E;" edge="1" parent="WIyWlLk6GJQsqaUBKTNV-1" source="FY5nKimyKRe9Z_fMQVkA-2" target="FY5nKimyKRe9Z_fMQVkA-14">
          <mxGeometry relative="1" as="geometry" />
        </mxCell>
        <mxCell id="FY5nKimyKRe9Z_fMQVkA-2" value="Arm/Mogo Dragger" style="rounded=1;whiteSpace=wrap;html=1;fontSize=12;glass=0;strokeWidth=1;shadow=0;fillColor=#EEEEEE;strokeColor=#FFFFFF;fontColor=#1A1A1A;" vertex="1" parent="WIyWlLk6GJQsqaUBKTNV-1">
          <mxGeometry x="880" y="260" width="120" height="40" as="geometry" />
        </mxCell>
        <mxCell id="FY5nKimyKRe9Z_fMQVkA-9" style="edgeStyle=orthogonalEdgeStyle;rounded=0;orthogonalLoop=1;jettySize=auto;html=1;entryX=0;entryY=0.5;entryDx=0;entryDy=0;strokeColor=#FFFFFF;fontColor=#FFFFFF;labelBackgroundColor=#182E3E;" edge="1" parent="WIyWlLk6GJQsqaUBKTNV-1" source="FY5nKimyKRe9Z_fMQVkA-6" target="FY5nKimyKRe9Z_fMQVkA-8">
          <mxGeometry relative="1" as="geometry" />
        </mxCell>
        <mxCell id="FY5nKimyKRe9Z_fMQVkA-12" style="edgeStyle=orthogonalEdgeStyle;rounded=0;orthogonalLoop=1;jettySize=auto;html=1;entryX=0.5;entryY=0;entryDx=0;entryDy=0;strokeColor=#FFFFFF;fontColor=#FFFFFF;labelBackgroundColor=#182E3E;" edge="1" parent="WIyWlLk6GJQsqaUBKTNV-1" source="FY5nKimyKRe9Z_fMQVkA-6" target="FY5nKimyKRe9Z_fMQVkA-10">
          <mxGeometry relative="1" as="geometry">
            <mxPoint x="472" y="260" as="targetPoint" />
          </mxGeometry>
        </mxCell>
        <mxCell id="FY5nKimyKRe9Z_fMQVkA-13" style="edgeStyle=orthogonalEdgeStyle;rounded=0;orthogonalLoop=1;jettySize=auto;html=1;strokeColor=#FFFFFF;fontColor=#FFFFFF;labelBackgroundColor=#182E3E;" edge="1" parent="WIyWlLk6GJQsqaUBKTNV-1" source="FY5nKimyKRe9Z_fMQVkA-6" target="FY5nKimyKRe9Z_fMQVkA-11">
          <mxGeometry relative="1" as="geometry">
            <mxPoint x="577" y="260" as="targetPoint" />
          </mxGeometry>
        </mxCell>
        <mxCell id="FY5nKimyKRe9Z_fMQVkA-16" style="edgeStyle=orthogonalEdgeStyle;rounded=0;orthogonalLoop=1;jettySize=auto;html=1;exitX=1;exitY=0.5;exitDx=0;exitDy=0;entryX=0;entryY=0.5;entryDx=0;entryDy=0;strokeColor=#FFFFFF;fontColor=#FFFFFF;labelBackgroundColor=#182E3E;" edge="1" parent="WIyWlLk6GJQsqaUBKTNV-1" source="FY5nKimyKRe9Z_fMQVkA-6" target="FY5nKimyKRe9Z_fMQVkA-15">
          <mxGeometry relative="1" as="geometry" />
        </mxCell>
        <mxCell id="FY5nKimyKRe9Z_fMQVkA-6" value="Get Controller&lt;br&gt;Input" style="shape=parallelogram;perimeter=parallelogramPerimeter;whiteSpace=wrap;html=1;fixedSize=1;fillColor=#EEEEEE;strokeColor=#FFFFFF;fontColor=#1A1A1A;" vertex="1" parent="WIyWlLk6GJQsqaUBKTNV-1">
          <mxGeometry x="412" y="130" width="120" height="60" as="geometry" />
        </mxCell>
        <mxCell id="FY5nKimyKRe9Z_fMQVkA-8" value="Run Drivetrain" style="rounded=0;whiteSpace=wrap;html=1;fillColor=#EEEEEE;strokeColor=#FFFFFF;fontColor=#1A1A1A;" vertex="1" parent="WIyWlLk6GJQsqaUBKTNV-1">
          <mxGeometry x="672" y="170" width="120" height="60" as="geometry" />
        </mxCell>
        <mxCell id="FY5nKimyKRe9Z_fMQVkA-10" value="Dock_State" style="shape=hexagon;perimeter=hexagonPerimeter2;whiteSpace=wrap;html=1;fixedSize=1;fillColor=#EEEEEE;strokeColor=#FFFFFF;fontColor=#1A1A1A;" vertex="1" parent="WIyWlLk6GJQsqaUBKTNV-1">
          <mxGeometry x="361" y="250" width="90" height="50" as="geometry" />
        </mxCell>
        <mxCell id="FY5nKimyKRe9Z_fMQVkA-11" value="Arm_State" style="shape=hexagon;perimeter=hexagonPerimeter2;whiteSpace=wrap;html=1;fixedSize=1;fillColor=#EEEEEE;strokeColor=#FFFFFF;fontColor=#1A1A1A;" vertex="1" parent="WIyWlLk6GJQsqaUBKTNV-1">
          <mxGeometry x="497" y="250" width="90" height="50" as="geometry" />
        </mxCell>
        <mxCell id="FY5nKimyKRe9Z_fMQVkA-21" style="edgeStyle=orthogonalEdgeStyle;rounded=0;orthogonalLoop=1;jettySize=auto;html=1;exitX=1;exitY=0.5;exitDx=0;exitDy=0;entryX=0;entryY=0.5;entryDx=0;entryDy=0;strokeColor=#FFFFFF;fontColor=#FFFFFF;labelBackgroundColor=#182E3E;" edge="1" parent="WIyWlLk6GJQsqaUBKTNV-1" source="FY5nKimyKRe9Z_fMQVkA-14" target="FY5nKimyKRe9Z_fMQVkA-20">
          <mxGeometry relative="1" as="geometry" />
        </mxCell>
        <mxCell id="FY5nKimyKRe9Z_fMQVkA-14" value="Get Arm Position" style="shape=parallelogram;perimeter=parallelogramPerimeter;whiteSpace=wrap;html=1;fixedSize=1;fillColor=#EEEEEE;strokeColor=#FFFFFF;fontColor=#1A1A1A;" vertex="1" parent="WIyWlLk6GJQsqaUBKTNV-1">
          <mxGeometry x="672" y="314" width="120" height="60" as="geometry" />
        </mxCell>
        <mxCell id="FY5nKimyKRe9Z_fMQVkA-15" value="Run&amp;nbsp;&lt;br&gt;Intake/Conveyer" style="rounded=0;whiteSpace=wrap;html=1;fillColor=#EEEEEE;strokeColor=#FFFFFF;fontColor=#1A1A1A;" vertex="1" parent="WIyWlLk6GJQsqaUBKTNV-1">
          <mxGeometry x="672" y="90" width="120" height="60" as="geometry" />
        </mxCell>
        <mxCell id="FY5nKimyKRe9Z_fMQVkA-41" style="edgeStyle=orthogonalEdgeStyle;rounded=0;orthogonalLoop=1;jettySize=auto;html=1;exitX=0.5;exitY=1;exitDx=0;exitDy=0;strokeColor=#FFFFFF;fontColor=#FFFFFF;labelBackgroundColor=#182E3E;" edge="1" parent="WIyWlLk6GJQsqaUBKTNV-1" source="FY5nKimyKRe9Z_fMQVkA-1" target="FY5nKimyKRe9Z_fMQVkA-32">
          <mxGeometry relative="1" as="geometry" />
        </mxCell>
        <mxCell id="FY5nKimyKRe9Z_fMQVkA-1" value="Dock/Mogo Lifter" style="rounded=1;whiteSpace=wrap;html=1;fontSize=12;glass=0;strokeWidth=1;shadow=0;fillColor=#EEEEEE;strokeColor=#FFFFFF;fontColor=#1A1A1A;" vertex="1" parent="WIyWlLk6GJQsqaUBKTNV-1">
          <mxGeometry x="1184" y="20" width="120" height="40" as="geometry" />
        </mxCell>
        <mxCell id="FY5nKimyKRe9Z_fMQVkA-25" style="edgeStyle=orthogonalEdgeStyle;rounded=0;orthogonalLoop=1;jettySize=auto;html=1;exitX=0.5;exitY=1;exitDx=0;exitDy=0;entryX=0.5;entryY=0;entryDx=0;entryDy=0;strokeColor=#FFFFFF;fontColor=#FFFFFF;labelBackgroundColor=#182E3E;" edge="1" parent="WIyWlLk6GJQsqaUBKTNV-1" source="FY5nKimyKRe9Z_fMQVkA-20" target="FY5nKimyKRe9Z_fMQVkA-24">
          <mxGeometry relative="1" as="geometry" />
        </mxCell>
        <mxCell id="FY5nKimyKRe9Z_fMQVkA-20" value="PID&lt;br&gt;Controller" style="rhombus;whiteSpace=wrap;html=1;fillColor=#EEEEEE;strokeColor=#FFFFFF;fontColor=#1A1A1A;" vertex="1" parent="WIyWlLk6GJQsqaUBKTNV-1">
          <mxGeometry x="900" y="354" width="80" height="80" as="geometry" />
        </mxCell>
        <mxCell id="FY5nKimyKRe9Z_fMQVkA-24" value="Move Arm Motor" style="rounded=0;whiteSpace=wrap;html=1;fillColor=#EEEEEE;strokeColor=#FFFFFF;fontColor=#1A1A1A;" vertex="1" parent="WIyWlLk6GJQsqaUBKTNV-1">
          <mxGeometry x="880" y="499" width="120" height="60" as="geometry" />
        </mxCell>
        <mxCell id="FY5nKimyKRe9Z_fMQVkA-28" style="edgeStyle=orthogonalEdgeStyle;rounded=0;orthogonalLoop=1;jettySize=auto;html=1;entryX=1;entryY=0.5;entryDx=0;entryDy=0;strokeColor=#FFFFFF;fontColor=#FFFFFF;labelBackgroundColor=#182E3E;" edge="1" parent="WIyWlLk6GJQsqaUBKTNV-1" source="FY5nKimyKRe9Z_fMQVkA-27" target="FY5nKimyKRe9Z_fMQVkA-2">
          <mxGeometry relative="1" as="geometry" />
        </mxCell>
        <mxCell id="FY5nKimyKRe9Z_fMQVkA-29" style="edgeStyle=orthogonalEdgeStyle;rounded=0;orthogonalLoop=1;jettySize=auto;html=1;exitX=0.5;exitY=1;exitDx=0;exitDy=0;entryX=1;entryY=0.5;entryDx=0;entryDy=0;strokeColor=#FFFFFF;fontColor=#FFFFFF;labelBackgroundColor=#182E3E;" edge="1" parent="WIyWlLk6GJQsqaUBKTNV-1" source="FY5nKimyKRe9Z_fMQVkA-27" target="FY5nKimyKRe9Z_fMQVkA-20">
          <mxGeometry relative="1" as="geometry" />
        </mxCell>
        <mxCell id="FY5nKimyKRe9Z_fMQVkA-27" value="Arm_State" style="shape=hexagon;perimeter=hexagonPerimeter2;whiteSpace=wrap;html=1;fixedSize=1;fillColor=#EEEEEE;strokeColor=#FFFFFF;fontColor=#1A1A1A;" vertex="1" parent="WIyWlLk6GJQsqaUBKTNV-1">
          <mxGeometry x="1057" y="255" width="90" height="50" as="geometry" />
        </mxCell>
        <mxCell id="FY5nKimyKRe9Z_fMQVkA-30" style="edgeStyle=orthogonalEdgeStyle;rounded=0;orthogonalLoop=1;jettySize=auto;html=1;strokeColor=#FFFFFF;fontColor=#FFFFFF;labelBackgroundColor=#182E3E;" edge="1" parent="WIyWlLk6GJQsqaUBKTNV-1" source="FY5nKimyKRe9Z_fMQVkA-32" target="FY5nKimyKRe9Z_fMQVkA-36">
          <mxGeometry relative="1" as="geometry" />
        </mxCell>
        <mxCell id="FY5nKimyKRe9Z_fMQVkA-31" style="edgeStyle=orthogonalEdgeStyle;rounded=0;orthogonalLoop=1;jettySize=auto;html=1;exitX=0.5;exitY=1;exitDx=0;exitDy=0;strokeColor=#FFFFFF;fontColor=#FFFFFF;labelBackgroundColor=#182E3E;" edge="1" parent="WIyWlLk6GJQsqaUBKTNV-1" source="FY5nKimyKRe9Z_fMQVkA-32" target="FY5nKimyKRe9Z_fMQVkA-34">
          <mxGeometry relative="1" as="geometry">
            <mxPoint x="1203" y="230" as="targetPoint" />
            <Array as="points">
              <mxPoint x="1244" y="193" />
              <mxPoint x="1256" y="193" />
            </Array>
          </mxGeometry>
        </mxCell>
        <mxCell id="FY5nKimyKRe9Z_fMQVkA-32" value="Dock/MOGO Lift" style="rounded=1;whiteSpace=wrap;html=1;fontSize=12;glass=0;strokeWidth=1;shadow=0;fillColor=#EEEEEE;strokeColor=#FFFFFF;fontColor=#1A1A1A;" vertex="1" parent="WIyWlLk6GJQsqaUBKTNV-1">
          <mxGeometry x="1184" y="108" width="120" height="40" as="geometry" />
        </mxCell>
        <mxCell id="FY5nKimyKRe9Z_fMQVkA-33" style="edgeStyle=orthogonalEdgeStyle;rounded=0;orthogonalLoop=1;jettySize=auto;html=1;exitX=1;exitY=0.5;exitDx=0;exitDy=0;entryX=0;entryY=0.5;entryDx=0;entryDy=0;strokeColor=#FFFFFF;fontColor=#FFFFFF;labelBackgroundColor=#182E3E;" edge="1" parent="WIyWlLk6GJQsqaUBKTNV-1" source="FY5nKimyKRe9Z_fMQVkA-34" target="FY5nKimyKRe9Z_fMQVkA-36">
          <mxGeometry relative="1" as="geometry" />
        </mxCell>
        <mxCell id="FY5nKimyKRe9Z_fMQVkA-34" value="Get Dock Position" style="shape=parallelogram;perimeter=parallelogramPerimeter;whiteSpace=wrap;html=1;fixedSize=1;fillColor=#EEEEEE;strokeColor=#FFFFFF;fontColor=#1A1A1A;" vertex="1" parent="WIyWlLk6GJQsqaUBKTNV-1">
          <mxGeometry x="1188" y="240" width="120" height="60" as="geometry" />
        </mxCell>
        <mxCell id="FY5nKimyKRe9Z_fMQVkA-35" style="edgeStyle=orthogonalEdgeStyle;rounded=0;orthogonalLoop=1;jettySize=auto;html=1;exitX=0.5;exitY=1;exitDx=0;exitDy=0;entryX=0.5;entryY=0;entryDx=0;entryDy=0;strokeColor=#FFFFFF;fontColor=#FFFFFF;labelBackgroundColor=#182E3E;" edge="1" parent="WIyWlLk6GJQsqaUBKTNV-1" source="FY5nKimyKRe9Z_fMQVkA-36" target="FY5nKimyKRe9Z_fMQVkA-37">
          <mxGeometry relative="1" as="geometry" />
        </mxCell>
        <mxCell id="FY5nKimyKRe9Z_fMQVkA-36" value="PID&lt;br&gt;Controller" style="rhombus;whiteSpace=wrap;html=1;fillColor=#EEEEEE;strokeColor=#FFFFFF;fontColor=#1A1A1A;" vertex="1" parent="WIyWlLk6GJQsqaUBKTNV-1">
          <mxGeometry x="1374" y="230" width="80" height="80" as="geometry" />
        </mxCell>
        <mxCell id="FY5nKimyKRe9Z_fMQVkA-37" value="Move Dock Motor" style="rounded=0;whiteSpace=wrap;html=1;fillColor=#EEEEEE;strokeColor=#FFFFFF;fontColor=#1A1A1A;" vertex="1" parent="WIyWlLk6GJQsqaUBKTNV-1">
          <mxGeometry x="1354" y="360" width="120" height="60" as="geometry" />
        </mxCell>
        <mxCell id="FY5nKimyKRe9Z_fMQVkA-39" style="edgeStyle=orthogonalEdgeStyle;rounded=0;orthogonalLoop=1;jettySize=auto;html=1;exitX=0.5;exitY=1;exitDx=0;exitDy=0;entryX=1;entryY=0.5;entryDx=0;entryDy=0;strokeColor=#FFFFFF;fontColor=#FFFFFF;labelBackgroundColor=#182E3E;" edge="1" parent="WIyWlLk6GJQsqaUBKTNV-1" source="FY5nKimyKRe9Z_fMQVkA-40" target="FY5nKimyKRe9Z_fMQVkA-36">
          <mxGeometry relative="1" as="geometry" />
        </mxCell>
        <mxCell id="FY5nKimyKRe9Z_fMQVkA-42" style="edgeStyle=orthogonalEdgeStyle;rounded=0;orthogonalLoop=1;jettySize=auto;html=1;entryX=1;entryY=0;entryDx=0;entryDy=0;strokeColor=#FFFFFF;fontColor=#FFFFFF;labelBackgroundColor=#182E3E;" edge="1" parent="WIyWlLk6GJQsqaUBKTNV-1" source="FY5nKimyKRe9Z_fMQVkA-40" target="FY5nKimyKRe9Z_fMQVkA-32">
          <mxGeometry relative="1" as="geometry">
            <Array as="points">
              <mxPoint x="1304" y="90" />
            </Array>
          </mxGeometry>
        </mxCell>
        <mxCell id="FY5nKimyKRe9Z_fMQVkA-40" value="Dock_State" style="shape=hexagon;perimeter=hexagonPerimeter2;whiteSpace=wrap;html=1;fixedSize=1;fillColor=#EEEEEE;strokeColor=#FFFFFF;fontColor=#1A1A1A;" vertex="1" parent="WIyWlLk6GJQsqaUBKTNV-1">
          <mxGeometry x="1458" y="67" width="90" height="50" as="geometry" />
        </mxCell>
      </root>
    </mxGraphModel>
  </diagram>
</mxfile>
